<svg xmlns="http://www.w3.org/2000/svg" xmlns:xlink="http://www.w3.org/1999/xlink" width="1920" zoomAndPan="magnify" viewBox="0 0 1440 809.999993" height="1080" preserveAspectRatio="xMidYMid meet" version="1.0"><path fill="#1c3f60" d="M 587.296875 284.351562 C 587.328125 282.75 587.371094 281.148438 587.4375 279.542969 C 591.808594 170.757812 689.679688 92.46875 788.453125 75.019531 C 923.972656 51.082031 1103.957031 140.652344 1072.4375 300.320312 C 1055.554688 385.804688 994.972656 463.296875 909.1875 487.03125 C 885.539062 493.578125 858.8125 497.796875 834.230469 497.796875 C 782.816406 497.796875 742.25 471.0625 694.960938 505.214844 C 681.132812 515.199219 666.824219 550.257812 644.890625 542.53125 C 628.859375 536.886719 625.496094 504.386719 624.410156 490.835938 C 618.828125 421.28125 586.0625 354.378906 587.296875 284.351562 Z M 587.296875 284.351562 " fill-opacity="1" fill-rule="nonzero"/><path fill="#ffffff" d="M 979.3125 285.40625 C 979.3125 286.441406 979.261719 287.476562 979.160156 288.507812 C 979.058594 289.539062 978.90625 290.5625 978.703125 291.578125 C 978.5 292.59375 978.25 293.597656 977.949219 294.589844 C 977.648438 295.582031 977.300781 296.554688 976.902344 297.511719 C 976.507812 298.46875 976.0625 299.40625 975.574219 300.320312 C 975.085938 301.230469 974.554688 302.121094 973.980469 302.980469 C 973.402344 303.84375 972.789062 304.675781 972.128906 305.476562 C 971.472656 306.277344 970.777344 307.042969 970.046875 307.773438 C 969.3125 308.507812 968.546875 309.203125 967.746094 309.859375 C 966.945312 310.515625 966.113281 311.132812 965.25 311.710938 C 964.390625 312.285156 963.503906 312.816406 962.589844 313.304688 C 961.675781 313.792969 960.738281 314.234375 959.78125 314.632812 C 958.824219 315.027344 957.851562 315.378906 956.859375 315.679688 C 955.867188 315.980469 954.863281 316.230469 953.847656 316.433594 C 952.832031 316.632812 951.808594 316.785156 950.777344 316.886719 C 949.746094 316.988281 948.710938 317.039062 947.675781 317.039062 C 946.640625 317.039062 945.605469 316.988281 944.574219 316.886719 C 943.542969 316.785156 942.519531 316.632812 941.503906 316.433594 C 940.488281 316.230469 939.484375 315.980469 938.492188 315.679688 C 937.503906 315.378906 936.527344 315.027344 935.570312 314.632812 C 934.613281 314.234375 933.679688 313.792969 932.765625 313.304688 C 931.851562 312.816406 930.964844 312.285156 930.101562 311.710938 C 929.238281 311.132812 928.410156 310.515625 927.609375 309.859375 C 926.808594 309.203125 926.039062 308.507812 925.308594 307.773438 C 924.574219 307.042969 923.878906 306.277344 923.222656 305.476562 C 922.566406 304.675781 921.949219 303.84375 921.375 302.980469 C 920.796875 302.121094 920.265625 301.230469 919.777344 300.320312 C 919.289062 299.40625 918.847656 298.46875 918.449219 297.511719 C 918.054688 296.554688 917.707031 295.582031 917.40625 294.589844 C 917.105469 293.597656 916.851562 292.59375 916.648438 291.578125 C 916.449219 290.5625 916.296875 289.539062 916.195312 288.507812 C 916.09375 287.476562 916.042969 286.441406 916.042969 285.40625 C 916.042969 284.371094 916.09375 283.335938 916.195312 282.304688 C 916.296875 281.273438 916.449219 280.25 916.648438 279.234375 C 916.851562 278.21875 917.105469 277.214844 917.40625 276.222656 C 917.707031 275.230469 918.054688 274.257812 918.449219 273.300781 C 918.847656 272.34375 919.289062 271.40625 919.777344 270.492188 C 920.265625 269.582031 920.796875 268.691406 921.375 267.832031 C 921.949219 266.96875 922.566406 266.136719 923.222656 265.335938 C 923.878906 264.535156 924.574219 263.769531 925.308594 263.039062 C 926.039062 262.304688 926.808594 261.609375 927.609375 260.953125 C 928.410156 260.296875 929.238281 259.679688 930.101562 259.101562 C 930.964844 258.527344 931.851562 257.996094 932.765625 257.507812 C 933.679688 257.019531 934.613281 256.578125 935.570312 256.179688 C 936.527344 255.785156 937.503906 255.433594 938.492188 255.132812 C 939.484375 254.832031 940.488281 254.582031 941.503906 254.378906 C 942.519531 254.175781 943.542969 254.027344 944.574219 253.925781 C 945.605469 253.824219 946.640625 253.773438 947.675781 253.773438 C 948.710938 253.773438 949.746094 253.824219 950.777344 253.925781 C 951.808594 254.027344 952.832031 254.175781 953.847656 254.378906 C 954.863281 254.582031 955.867188 254.832031 956.859375 255.132812 C 957.851562 255.433594 958.824219 255.785156 959.78125 256.179688 C 960.738281 256.578125 961.675781 257.019531 962.589844 257.507812 C 963.503906 257.996094 964.390625 258.527344 965.25 259.101562 C 966.113281 259.679688 966.945312 260.296875 967.746094 260.953125 C 968.546875 261.609375 969.3125 262.304688 970.046875 263.039062 C 970.777344 263.769531 971.472656 264.535156 972.128906 265.335938 C 972.789062 266.136719 973.402344 266.96875 973.980469 267.832031 C 974.554688 268.691406 975.085938 269.582031 975.574219 270.492188 C 976.0625 271.40625 976.507812 272.34375 976.902344 273.300781 C 977.300781 274.257812 977.648438 275.230469 977.949219 276.222656 C 978.25 277.214844 978.5 278.21875 978.703125 279.234375 C 978.90625 280.25 979.058594 281.273438 979.160156 282.304688 C 979.261719 283.335938 979.3125 284.371094 979.3125 285.40625 Z M 979.3125 285.40625 " fill-opacity="1" fill-rule="nonzero"/><path fill="#ffffff" d="M 867.570312 285.40625 C 867.570312 286.441406 867.519531 287.476562 867.417969 288.507812 C 867.316406 289.539062 867.164062 290.5625 866.964844 291.578125 C 866.761719 292.59375 866.511719 293.597656 866.210938 294.589844 C 865.910156 295.582031 865.558594 296.554688 865.164062 297.511719 C 864.765625 298.46875 864.324219 299.40625 863.835938 300.320312 C 863.347656 301.234375 862.816406 302.121094 862.238281 302.984375 C 861.664062 303.84375 861.046875 304.675781 860.390625 305.476562 C 859.734375 306.277344 859.039062 307.042969 858.304688 307.777344 C 857.574219 308.507812 856.804688 309.203125 856.003906 309.863281 C 855.203125 310.519531 854.371094 311.136719 853.511719 311.710938 C 852.648438 312.285156 851.761719 312.820312 850.847656 313.308594 C 849.933594 313.796875 849 314.238281 848.042969 314.636719 C 847.085938 315.03125 846.109375 315.378906 845.117188 315.679688 C 844.125 315.980469 843.121094 316.234375 842.105469 316.433594 C 841.089844 316.636719 840.066406 316.789062 839.035156 316.890625 C 838.003906 316.992188 836.972656 317.042969 835.933594 317.042969 C 834.898438 317.042969 833.863281 316.992188 832.832031 316.890625 C 831.800781 316.789062 830.777344 316.636719 829.761719 316.433594 C 828.746094 316.234375 827.742188 315.980469 826.75 315.679688 C 825.757812 315.378906 824.785156 315.03125 823.828125 314.636719 C 822.871094 314.238281 821.933594 313.796875 821.019531 313.308594 C 820.105469 312.820312 819.21875 312.285156 818.359375 311.710938 C 817.496094 311.136719 816.664062 310.519531 815.863281 309.863281 C 815.0625 309.203125 814.296875 308.507812 813.5625 307.777344 C 812.832031 307.042969 812.136719 306.277344 811.480469 305.476562 C 810.820312 304.675781 810.207031 303.84375 809.628906 302.984375 C 809.054688 302.121094 808.523438 301.234375 808.035156 300.320312 C 807.546875 299.40625 807.101562 298.46875 806.707031 297.511719 C 806.308594 296.554688 805.960938 295.582031 805.660156 294.589844 C 805.359375 293.597656 805.109375 292.59375 804.90625 291.578125 C 804.703125 290.5625 804.550781 289.539062 804.449219 288.507812 C 804.347656 287.476562 804.296875 286.441406 804.296875 285.40625 C 804.296875 284.371094 804.347656 283.335938 804.449219 282.304688 C 804.550781 281.273438 804.703125 280.25 804.90625 279.234375 C 805.109375 278.21875 805.359375 277.214844 805.660156 276.222656 C 805.960938 275.230469 806.308594 274.257812 806.707031 273.300781 C 807.101562 272.34375 807.546875 271.40625 808.035156 270.492188 C 808.523438 269.578125 809.054688 268.691406 809.628906 267.828125 C 810.207031 266.96875 810.820312 266.136719 811.480469 265.335938 C 812.136719 264.535156 812.832031 263.769531 813.5625 263.035156 C 814.296875 262.304688 815.0625 261.609375 815.863281 260.949219 C 816.664062 260.292969 817.496094 259.675781 818.359375 259.101562 C 819.21875 258.527344 820.105469 257.992188 821.019531 257.503906 C 821.933594 257.015625 822.871094 256.574219 823.828125 256.175781 C 824.785156 255.78125 825.757812 255.433594 826.75 255.132812 C 827.742188 254.832031 828.746094 254.578125 829.761719 254.378906 C 830.777344 254.175781 831.800781 254.023438 832.832031 253.921875 C 833.863281 253.820312 834.898438 253.769531 835.933594 253.769531 C 836.972656 253.769531 838.003906 253.820312 839.035156 253.921875 C 840.066406 254.023438 841.089844 254.175781 842.105469 254.378906 C 843.121094 254.578125 844.125 254.832031 845.117188 255.132812 C 846.109375 255.433594 847.085938 255.78125 848.042969 256.175781 C 849 256.574219 849.933594 257.015625 850.847656 257.503906 C 851.761719 257.992188 852.648438 258.527344 853.511719 259.101562 C 854.371094 259.675781 855.203125 260.292969 856.003906 260.949219 C 856.804688 261.609375 857.574219 262.304688 858.304688 263.035156 C 859.039062 263.769531 859.734375 264.535156 860.390625 265.335938 C 861.046875 266.136719 861.664062 266.96875 862.238281 267.828125 C 862.816406 268.691406 863.347656 269.578125 863.835938 270.492188 C 864.324219 271.40625 864.765625 272.34375 865.164062 273.300781 C 865.558594 274.257812 865.910156 275.230469 866.210938 276.222656 C 866.511719 277.214844 866.761719 278.21875 866.964844 279.234375 C 867.164062 280.25 867.316406 281.273438 867.417969 282.304688 C 867.519531 283.335938 867.570312 284.371094 867.570312 285.40625 Z M 867.570312 285.40625 " fill-opacity="1" fill-rule="nonzero"/><path fill="#ffffff" d="M 761.746094 285.40625 C 761.746094 286.441406 761.695312 287.476562 761.59375 288.507812 C 761.492188 289.539062 761.339844 290.5625 761.140625 291.578125 C 760.9375 292.59375 760.6875 293.597656 760.386719 294.589844 C 760.085938 295.582031 759.734375 296.554688 759.339844 297.511719 C 758.941406 298.46875 758.5 299.40625 758.011719 300.320312 C 757.523438 301.230469 756.992188 302.121094 756.417969 302.980469 C 755.839844 303.84375 755.222656 304.675781 754.566406 305.476562 C 753.910156 306.277344 753.214844 307.042969 752.480469 307.773438 C 751.75 308.507812 750.984375 309.203125 750.179688 309.859375 C 749.378906 310.515625 748.550781 311.132812 747.6875 311.710938 C 746.828125 312.285156 745.9375 312.816406 745.023438 313.304688 C 744.113281 313.792969 743.175781 314.234375 742.21875 314.632812 C 741.261719 315.027344 740.289062 315.378906 739.296875 315.679688 C 738.304688 315.980469 737.300781 316.230469 736.285156 316.433594 C 735.269531 316.632812 734.246094 316.785156 733.214844 316.886719 C 732.183594 316.988281 731.148438 317.039062 730.113281 317.039062 C 729.078125 317.039062 728.042969 316.988281 727.011719 316.886719 C 725.980469 316.785156 724.957031 316.632812 723.941406 316.433594 C 722.925781 316.230469 721.921875 315.980469 720.929688 315.679688 C 719.9375 315.378906 718.964844 315.027344 718.007812 314.632812 C 717.050781 314.234375 716.113281 313.792969 715.199219 313.304688 C 714.289062 312.816406 713.398438 312.285156 712.539062 311.710938 C 711.675781 311.132812 710.84375 310.515625 710.042969 309.859375 C 709.242188 309.203125 708.476562 308.507812 707.746094 307.773438 C 707.011719 307.042969 706.316406 306.277344 705.660156 305.476562 C 705.003906 304.675781 704.386719 303.84375 703.808594 302.980469 C 703.234375 302.121094 702.703125 301.230469 702.214844 300.320312 C 701.726562 299.40625 701.285156 298.46875 700.886719 297.511719 C 700.492188 296.554688 700.140625 295.582031 699.839844 294.589844 C 699.539062 293.597656 699.289062 292.59375 699.085938 291.578125 C 698.882812 290.5625 698.734375 289.539062 698.632812 288.507812 C 698.53125 287.476562 698.480469 286.441406 698.480469 285.40625 C 698.480469 284.371094 698.53125 283.335938 698.632812 282.304688 C 698.734375 281.273438 698.882812 280.25 699.085938 279.234375 C 699.289062 278.21875 699.539062 277.214844 699.839844 276.222656 C 700.140625 275.230469 700.492188 274.257812 700.886719 273.300781 C 701.285156 272.34375 701.726562 271.40625 702.214844 270.492188 C 702.703125 269.582031 703.234375 268.691406 703.808594 267.832031 C 704.386719 266.96875 705.003906 266.136719 705.660156 265.335938 C 706.316406 264.535156 707.011719 263.769531 707.746094 263.039062 C 708.476562 262.304688 709.242188 261.609375 710.042969 260.953125 C 710.84375 260.296875 711.675781 259.679688 712.539062 259.101562 C 713.398438 258.527344 714.289062 257.996094 715.199219 257.507812 C 716.113281 257.019531 717.050781 256.578125 718.007812 256.179688 C 718.964844 255.785156 719.9375 255.433594 720.929688 255.132812 C 721.921875 254.832031 722.925781 254.582031 723.941406 254.378906 C 724.957031 254.175781 725.980469 254.027344 727.011719 253.925781 C 728.042969 253.824219 729.078125 253.773438 730.113281 253.773438 C 731.148438 253.773438 732.183594 253.824219 733.214844 253.925781 C 734.246094 254.027344 735.269531 254.175781 736.285156 254.378906 C 737.300781 254.582031 738.304688 254.832031 739.296875 255.132812 C 740.289062 255.433594 741.261719 255.785156 742.21875 256.179688 C 743.175781 256.578125 744.113281 257.019531 745.027344 257.507812 C 745.9375 257.996094 746.828125 258.527344 747.6875 259.101562 C 748.550781 259.679688 749.378906 260.296875 750.183594 260.953125 C 750.984375 261.609375 751.75 262.304688 752.480469 263.039062 C 753.214844 263.769531 753.910156 264.535156 754.566406 265.335938 C 755.222656 266.136719 755.839844 266.96875 756.417969 267.832031 C 756.992188 268.691406 757.523438 269.582031 758.011719 270.492188 C 758.5 271.40625 758.941406 272.34375 759.339844 273.300781 C 759.734375 274.257812 760.085938 275.230469 760.386719 276.222656 C 760.6875 277.214844 760.9375 278.21875 761.140625 279.234375 C 761.339844 280.25 761.492188 281.273438 761.59375 282.304688 C 761.695312 283.335938 761.746094 284.371094 761.746094 285.40625 Z M 761.746094 285.40625 " fill-opacity="1" fill-rule="nonzero"/><path fill="#d9c598" d="M 852.417969 492.929688 C 852.390625 491.332031 852.347656 489.726562 852.28125 488.125 C 847.910156 379.335938 750.039062 301.046875 651.265625 283.597656 C 515.746094 259.660156 335.761719 349.234375 367.28125 508.902344 C 384.164062 594.382812 444.742188 671.875 530.527344 695.613281 C 554.179688 702.15625 580.902344 706.375 605.488281 706.375 C 656.902344 706.375 697.46875 679.644531 744.757812 713.792969 C 758.585938 723.777344 772.894531 758.839844 794.828125 751.113281 C 810.859375 745.46875 814.21875 712.96875 815.304688 699.414062 C 820.890625 629.863281 853.652344 562.960938 852.417969 492.929688 Z M 852.417969 492.929688 " fill-opacity="1" fill-rule="nonzero"/><path fill="#ffffff" d="M 523.675781 493.984375 C 523.675781 495.023438 523.625 496.054688 523.523438 497.085938 C 523.421875 498.117188 523.269531 499.140625 523.066406 500.15625 C 522.867188 501.171875 522.613281 502.175781 522.3125 503.167969 C 522.011719 504.160156 521.664062 505.132812 521.265625 506.089844 C 520.871094 507.050781 520.429688 507.984375 519.941406 508.898438 C 519.453125 509.8125 518.917969 510.699219 518.34375 511.5625 C 517.769531 512.421875 517.152344 513.253906 516.496094 514.054688 C 515.835938 514.855469 515.144531 515.621094 514.410156 516.355469 C 513.675781 517.085938 512.910156 517.78125 512.109375 518.4375 C 511.308594 519.097656 510.476562 519.714844 509.617188 520.289062 C 508.753906 520.863281 507.867188 521.394531 506.953125 521.882812 C 506.039062 522.375 505.105469 522.816406 504.148438 523.210938 C 503.191406 523.609375 502.214844 523.957031 501.222656 524.257812 C 500.234375 524.558594 499.230469 524.808594 498.210938 525.011719 C 497.195312 525.214844 496.171875 525.367188 495.140625 525.46875 C 494.109375 525.570312 493.078125 525.621094 492.042969 525.621094 C 491.003906 525.621094 489.972656 525.570312 488.941406 525.46875 C 487.910156 525.367188 486.886719 525.214844 485.871094 525.011719 C 484.851562 524.808594 483.851562 524.558594 482.859375 524.257812 C 481.867188 523.957031 480.890625 523.609375 479.933594 523.210938 C 478.976562 522.816406 478.042969 522.375 477.128906 521.882812 C 476.214844 521.394531 475.328125 520.863281 474.464844 520.289062 C 473.605469 519.714844 472.773438 519.097656 471.972656 518.4375 C 471.171875 517.78125 470.40625 517.085938 469.671875 516.355469 C 468.941406 515.621094 468.246094 514.855469 467.585938 514.054688 C 466.929688 513.253906 466.3125 512.421875 465.738281 511.5625 C 465.164062 510.699219 464.628906 509.8125 464.140625 508.898438 C 463.652344 507.984375 463.210938 507.050781 462.816406 506.089844 C 462.417969 505.132812 462.070312 504.160156 461.769531 503.167969 C 461.46875 502.175781 461.21875 501.171875 461.015625 500.15625 C 460.8125 499.140625 460.660156 498.117188 460.558594 497.085938 C 460.457031 496.054688 460.40625 495.023438 460.40625 493.984375 C 460.40625 492.949219 460.457031 491.917969 460.558594 490.886719 C 460.660156 489.855469 460.8125 488.832031 461.015625 487.8125 C 461.21875 486.796875 461.46875 485.792969 461.769531 484.804688 C 462.070312 483.8125 462.417969 482.835938 462.816406 481.878906 C 463.210938 480.921875 463.652344 479.988281 464.140625 479.074219 C 464.628906 478.160156 465.164062 477.273438 465.738281 476.410156 C 466.3125 475.550781 466.929688 474.71875 467.585938 473.917969 C 468.246094 473.117188 468.941406 472.351562 469.671875 471.617188 C 470.40625 470.882812 471.171875 470.191406 471.972656 469.53125 C 472.773438 468.875 473.605469 468.257812 474.464844 467.683594 C 475.328125 467.109375 476.214844 466.574219 477.128906 466.085938 C 478.042969 465.597656 478.976562 465.15625 479.933594 464.757812 C 480.890625 464.363281 481.867188 464.015625 482.859375 463.714844 C 483.851562 463.414062 484.851562 463.160156 485.871094 462.960938 C 486.886719 462.757812 487.910156 462.605469 488.941406 462.503906 C 489.972656 462.402344 491.003906 462.351562 492.042969 462.351562 C 493.078125 462.351562 494.109375 462.402344 495.140625 462.503906 C 496.171875 462.605469 497.195312 462.757812 498.210938 462.960938 C 499.230469 463.160156 500.234375 463.414062 501.222656 463.714844 C 502.214844 464.015625 503.191406 464.363281 504.148438 464.757812 C 505.105469 465.15625 506.039062 465.597656 506.953125 466.085938 C 507.867188 466.574219 508.753906 467.105469 509.617188 467.683594 C 510.476562 468.257812 511.308594 468.875 512.109375 469.53125 C 512.910156 470.191406 513.675781 470.882812 514.410156 471.617188 C 515.144531 472.351562 515.835938 473.117188 516.496094 473.917969 C 517.152344 474.71875 517.769531 475.550781 518.34375 476.410156 C 518.917969 477.273438 519.453125 478.160156 519.941406 479.074219 C 520.429688 479.988281 520.871094 480.921875 521.265625 481.878906 C 521.664062 482.835938 522.011719 483.8125 522.3125 484.804688 C 522.613281 485.792969 522.867188 486.796875 523.066406 487.8125 C 523.269531 488.832031 523.421875 489.855469 523.523438 490.886719 C 523.625 491.917969 523.675781 492.949219 523.675781 493.984375 Z M 523.675781 493.984375 " fill-opacity="1" fill-rule="nonzero"/><path fill="#ffffff" d="M 635.421875 493.984375 C 635.421875 495.023438 635.371094 496.054688 635.269531 497.085938 C 635.167969 498.117188 635.015625 499.140625 634.8125 500.15625 C 634.609375 501.175781 634.359375 502.179688 634.058594 503.167969 C 633.757812 504.160156 633.410156 505.136719 633.011719 506.09375 C 632.617188 507.050781 632.171875 507.984375 631.683594 508.898438 C 631.195312 509.8125 630.664062 510.699219 630.089844 511.5625 C 629.511719 512.425781 628.894531 513.253906 628.238281 514.054688 C 627.582031 514.855469 626.886719 515.625 626.152344 516.355469 C 625.421875 517.089844 624.652344 517.785156 623.851562 518.441406 C 623.050781 519.097656 622.222656 519.714844 621.359375 520.292969 C 620.5 520.867188 619.609375 521.398438 618.695312 521.886719 C 617.78125 522.375 616.847656 522.816406 615.890625 523.214844 C 614.933594 523.609375 613.957031 523.960938 612.96875 524.261719 C 611.976562 524.5625 610.972656 524.8125 609.953125 525.015625 C 608.9375 525.21875 607.914062 525.367188 606.882812 525.46875 C 605.851562 525.570312 604.820312 525.621094 603.78125 525.621094 C 602.746094 525.621094 601.714844 525.570312 600.683594 525.46875 C 599.652344 525.367188 598.628906 525.21875 597.609375 525.015625 C 596.59375 524.8125 595.589844 524.5625 594.597656 524.261719 C 593.609375 523.960938 592.632812 523.609375 591.675781 523.214844 C 590.71875 522.816406 589.785156 522.375 588.871094 521.886719 C 587.957031 521.398438 587.066406 520.867188 586.207031 520.292969 C 585.34375 519.714844 584.515625 519.097656 583.710938 518.441406 C 582.910156 517.785156 582.144531 517.089844 581.414062 516.355469 C 580.679688 515.625 579.984375 514.855469 579.328125 514.054688 C 578.671875 513.253906 578.054688 512.425781 577.476562 511.5625 C 576.902344 510.699219 576.371094 509.8125 575.882812 508.898438 C 575.394531 507.984375 574.949219 507.050781 574.554688 506.09375 C 574.15625 505.136719 573.808594 504.160156 573.507812 503.167969 C 573.207031 502.179688 572.957031 501.175781 572.753906 500.15625 C 572.550781 499.140625 572.398438 498.117188 572.296875 497.085938 C 572.195312 496.054688 572.144531 495.023438 572.144531 493.984375 C 572.144531 492.949219 572.195312 491.917969 572.296875 490.886719 C 572.398438 489.855469 572.550781 488.832031 572.753906 487.8125 C 572.957031 486.796875 573.207031 485.792969 573.507812 484.800781 C 573.808594 483.8125 574.15625 482.835938 574.554688 481.878906 C 574.949219 480.921875 575.394531 479.984375 575.882812 479.074219 C 576.371094 478.160156 576.902344 477.269531 577.476562 476.410156 C 578.054688 475.546875 578.671875 474.714844 579.328125 473.914062 C 579.984375 473.113281 580.679688 472.347656 581.414062 471.613281 C 582.144531 470.882812 582.910156 470.1875 583.710938 469.53125 C 584.515625 468.871094 585.34375 468.257812 586.207031 467.679688 C 587.066406 467.105469 587.957031 466.574219 588.871094 466.085938 C 589.785156 465.597656 590.71875 465.152344 591.675781 464.757812 C 592.632812 464.359375 593.609375 464.011719 594.597656 463.710938 C 595.589844 463.410156 596.59375 463.160156 597.609375 462.957031 C 598.628906 462.753906 599.652344 462.601562 600.683594 462.5 C 601.714844 462.398438 602.746094 462.347656 603.78125 462.347656 C 604.820312 462.347656 605.851562 462.398438 606.882812 462.5 C 607.914062 462.601562 608.9375 462.753906 609.953125 462.957031 C 610.972656 463.160156 611.976562 463.410156 612.96875 463.710938 C 613.957031 464.011719 614.933594 464.359375 615.890625 464.757812 C 616.847656 465.152344 617.78125 465.597656 618.695312 466.085938 C 619.609375 466.574219 620.5 467.105469 621.359375 467.679688 C 622.222656 468.257812 623.050781 468.871094 623.851562 469.53125 C 624.652344 470.1875 625.421875 470.882812 626.152344 471.613281 C 626.886719 472.347656 627.582031 473.113281 628.238281 473.914062 C 628.894531 474.714844 629.511719 475.546875 630.089844 476.410156 C 630.664062 477.269531 631.195312 478.160156 631.683594 479.074219 C 632.171875 479.984375 632.617188 480.921875 633.011719 481.878906 C 633.410156 482.835938 633.757812 483.8125 634.058594 484.800781 C 634.359375 485.792969 634.609375 486.796875 634.8125 487.8125 C 635.015625 488.832031 635.167969 489.855469 635.269531 490.886719 C 635.371094 491.917969 635.421875 492.949219 635.421875 493.984375 Z M 635.421875 493.984375 " fill-opacity="1" fill-rule="nonzero"/><path fill="#ffffff" d="M 741.238281 493.984375 C 741.238281 495.023438 741.1875 496.054688 741.085938 497.085938 C 740.984375 498.117188 740.832031 499.140625 740.632812 500.15625 C 740.429688 501.171875 740.175781 502.175781 739.875 503.167969 C 739.574219 504.160156 739.226562 505.132812 738.832031 506.089844 C 738.433594 507.050781 737.992188 507.984375 737.503906 508.898438 C 737.015625 509.8125 736.484375 510.699219 735.90625 511.5625 C 735.332031 512.421875 734.714844 513.253906 734.058594 514.054688 C 733.402344 514.855469 732.707031 515.621094 731.972656 516.355469 C 731.242188 517.085938 730.472656 517.78125 729.671875 518.4375 C 728.871094 519.097656 728.039062 519.714844 727.179688 520.289062 C 726.316406 520.863281 725.429688 521.394531 724.515625 521.882812 C 723.601562 522.375 722.667969 522.816406 721.710938 523.210938 C 720.753906 523.609375 719.777344 523.957031 718.789062 524.257812 C 717.796875 524.558594 716.792969 524.808594 715.777344 525.011719 C 714.761719 525.214844 713.738281 525.367188 712.707031 525.46875 C 711.675781 525.570312 710.640625 525.621094 709.605469 525.621094 C 708.570312 525.621094 707.535156 525.570312 706.503906 525.46875 C 705.472656 525.367188 704.449219 525.214844 703.433594 525.011719 C 702.417969 524.808594 701.414062 524.558594 700.421875 524.257812 C 699.429688 523.957031 698.457031 523.609375 697.5 523.210938 C 696.542969 522.816406 695.605469 522.375 694.691406 521.882812 C 693.777344 521.394531 692.890625 520.863281 692.03125 520.289062 C 691.167969 519.714844 690.335938 519.097656 689.535156 518.4375 C 688.734375 517.78125 687.96875 517.085938 687.234375 516.355469 C 686.503906 515.621094 685.808594 514.855469 685.152344 514.054688 C 684.492188 513.253906 683.878906 512.421875 683.300781 511.5625 C 682.726562 510.699219 682.195312 509.8125 681.707031 508.898438 C 681.21875 507.984375 680.773438 507.050781 680.378906 506.089844 C 679.980469 505.132812 679.632812 504.160156 679.332031 503.167969 C 679.03125 502.175781 678.78125 501.171875 678.578125 500.15625 C 678.375 499.140625 678.222656 498.117188 678.121094 497.085938 C 678.019531 496.054688 677.96875 495.023438 677.96875 493.984375 C 677.96875 492.949219 678.019531 491.917969 678.121094 490.886719 C 678.222656 489.855469 678.375 488.832031 678.578125 487.8125 C 678.78125 486.796875 679.03125 485.792969 679.332031 484.804688 C 679.632812 483.8125 679.980469 482.835938 680.378906 481.878906 C 680.773438 480.921875 681.21875 479.988281 681.707031 479.074219 C 682.195312 478.160156 682.726562 477.273438 683.300781 476.410156 C 683.878906 475.550781 684.492188 474.71875 685.152344 473.917969 C 685.808594 473.117188 686.503906 472.351562 687.234375 471.617188 C 687.96875 470.882812 688.734375 470.191406 689.535156 469.53125 C 690.335938 468.875 691.167969 468.257812 692.03125 467.683594 C 692.890625 467.109375 693.777344 466.574219 694.691406 466.085938 C 695.605469 465.597656 696.542969 465.15625 697.5 464.757812 C 698.457031 464.363281 699.429688 464.015625 700.421875 463.714844 C 701.414062 463.414062 702.417969 463.160156 703.433594 462.960938 C 704.449219 462.757812 705.472656 462.605469 706.503906 462.503906 C 707.535156 462.402344 708.570312 462.351562 709.605469 462.351562 C 710.640625 462.351562 711.675781 462.402344 712.707031 462.503906 C 713.738281 462.605469 714.761719 462.757812 715.777344 462.960938 C 716.792969 463.160156 717.796875 463.414062 718.789062 463.714844 C 719.777344 464.015625 720.753906 464.363281 721.710938 464.757812 C 722.667969 465.15625 723.601562 465.597656 724.515625 466.085938 C 725.429688 466.574219 726.316406 467.105469 727.179688 467.683594 C 728.039062 468.257812 728.871094 468.875 729.671875 469.53125 C 730.472656 470.191406 731.242188 470.882812 731.972656 471.617188 C 732.707031 472.351562 733.402344 473.117188 734.058594 473.917969 C 734.714844 474.71875 735.332031 475.550781 735.90625 476.410156 C 736.484375 477.273438 737.015625 478.160156 737.503906 479.074219 C 737.992188 479.988281 738.433594 480.921875 738.832031 481.878906 C 739.226562 482.835938 739.574219 483.8125 739.875 484.804688 C 740.175781 485.792969 740.429688 486.796875 740.628906 487.8125 C 740.832031 488.832031 740.984375 489.855469 741.085938 490.886719 C 741.1875 491.917969 741.238281 492.949219 741.238281 493.984375 Z M 741.238281 493.984375 " fill-opacity="1" fill-rule="nonzero"/></svg>