<svg xmlns="http://www.w3.org/2000/svg" xmlns:xlink="http://www.w3.org/1999/xlink" width="1920" zoomAndPan="magnify" viewBox="0 0 1440 809.999993" height="1080" preserveAspectRatio="xMidYMid meet" version="1.0"><defs><filter x="0%" y="0%" width="100%" height="100%" id="cdf11c35fa"><feColorMatrix values="0 0 0 0 1 0 0 0 0 1 0 0 0 0 1 0 0 0 1 0" color-interpolation-filters="sRGB"/></filter><mask id="9d56013d14"><g filter="url(#cdf11c35fa)"><rect x="-144" width="1728" fill="#000000" y="-80.999999" height="971.999992" fill-opacity="0.15"/></g></mask><clipPath id="770512bc22"><path d="M 0.589844 0.589844 L 775.339844 0.589844 L 775.339844 775.339844 L 0.589844 775.339844 Z M 0.589844 0.589844 " clip-rule="nonzero"/></clipPath><clipPath id="7f5658f0da"><rect x="0" width="776" y="0" height="776"/></clipPath></defs><g mask="url(#9d56013d14)"><g transform="matrix(1, 0, 0, 1, 332, 17)"><g clip-path="url(#7f5658f0da)"><g clip-path="url(#770512bc22)"><path fill="#80b2e8" d="M 388.007812 754.371094 C 185.984375 754.371094 21.625 589.992188 21.625 388.019531 C 21.625 254.570312 93.390625 137.539062 200.347656 73.488281 C 204.410156 76.472656 209.511719 78.503906 216.019531 78.503906 C 216.019531 78.503906 223.046875 78.503906 178.148438 113.574219 C 133.230469 148.6875 137.417969 197.363281 151.445312 166.722656 C 165.503906 136.042969 178.148438 147.28125 155.679688 190.808594 C 133.230469 234.347656 167.496094 220.285156 179.101562 246.945312 C 190.769531 273.601562 194.980469 241.347656 200.574219 291.886719 C 200.574219 291.886719 214.667969 308.714844 239.898438 300.296875 C 265.160156 291.886719 235.6875 322.71875 209.015625 348.015625 C 182.335938 373.300781 190.746094 381.679688 204.804688 397.140625 C 218.835938 412.601562 224.472656 425.203125 211.832031 442.074219 C 199.210938 458.90625 231.480469 464.507812 239.898438 474.332031 C 248.316406 484.15625 246.898438 516.457031 227.269531 530.507812 C 207.644531 544.515625 237.09375 575.402344 232.851562 618.933594 C 228.640625 662.417969 229.675781 680.664062 249.515625 683.476562 C 269.371094 686.292969 246.898438 645.585938 255.320312 627.347656 C 263.753906 609.109375 273.601562 639.992188 293.234375 590.859375 C 293.234375 590.859375 328.355469 599.28125 343.734375 545.929688 C 343.734375 545.929688 374.621094 541.699219 380.253906 524.867188 C 385.894531 508.035156 378.847656 496.800781 423.746094 460.316406 C 468.640625 423.796875 392.863281 395.730469 352.191406 394.324219 C 352.191406 394.324219 337.269531 400.414062 363.425781 353.613281 C 374.824219 333.175781 340.953125 338.1875 332.542969 319.953125 C 324.125 301.707031 304.476562 280.648438 265.160156 284.839844 C 225.859375 289.0625 214.589844 303.121094 213.238281 279.234375 C 211.832031 255.355469 230.046875 244.164062 210.402344 241.347656 C 190.769531 238.523438 200.574219 237.117188 221.679688 217.464844 C 221.679688 217.464844 209.015625 209.007812 196.386719 221.691406 C 183.742188 234.347656 161.273438 214.6875 187.953125 186.625 C 214.667969 158.515625 256.726562 137.453125 253.925781 190.808594 C 251.132812 244.164062 270.78125 166.722656 270.78125 166.722656 C 270.78125 166.722656 300.253906 129.039062 336.769531 126.261719 C 373.207031 123.445312 350.78125 122.035156 350.78125 109.386719 C 350.78125 96.789062 367.613281 130.445312 388.007812 122.035156 C 408.320312 113.574219 366.203125 110.804688 370.4375 96.789062 C 374.621094 82.734375 398.539062 86.921875 408.320312 105.203125 C 418.148438 123.445312 429.386719 95.375 404.136719 65.863281 C 378.847656 36.425781 383.078125 54.671875 359.203125 67.269531 C 335.359375 79.910156 345.1875 86.921875 340.953125 65.863281 C 336.769531 44.839844 335.359375 67.269531 324.125 56.078125 C 312.851562 44.839844 344.152344 50.023438 360.609375 51.847656 C 377.070312 53.628906 371.84375 42.019531 371.84375 42.019531 L 388.007812 35.019531 C 388.007812 35.019531 398.539062 50.441406 411.144531 47.621094 C 423.746094 44.839844 402.726562 25.152344 415.328125 27.96875 C 427.972656 30.78125 444.804688 19.558594 446.21875 36.425781 C 447.625 53.253906 436.386719 75.722656 482.738281 50.441406 C 492.113281 45.339844 498.367188 42.019531 502.628906 40.035156 C 505.789062 41.070312 508.855469 42.152344 511.960938 43.304688 C 512.25 46.664062 513.328125 51.023438 519.222656 54.671875 C 537.460938 65.863281 531.867188 56.035156 555.699219 70.09375 C 579.582031 84.148438 564.117188 99.570312 582.355469 102.382812 C 600.597656 105.203125 617.46875 130.445312 603.464844 131.859375 C 589.40625 133.265625 587.992188 116.441406 566.976562 113.574219 C 545.875 110.804688 575.398438 120.585938 589.40625 133.265625 C 603.464844 145.875 603.464844 160.84375 589.40625 166.722656 C 575.398438 172.574219 585.757812 204.863281 608.640625 200.640625 C 631.527344 196.410156 623.070312 172.574219 635.707031 178.207031 C 648.359375 183.800781 644.128906 197.816406 665.191406 206.269531 C 686.289062 214.6875 662.367188 225.878906 687.664062 227.285156 C 712.945312 228.703125 725.546875 238.523438 703.078125 248.351562 C 680.613281 258.222656 691.882812 266.59375 672.191406 242.714844 C 652.546875 218.878906 654.492188 241.71875 652.546875 218.878906 C 650.636719 196.035156 618.886719 217.464844 602.046875 220.285156 C 585.179688 223.101562 599.230469 239.933594 583.765625 242.714844 C 568.304688 245.539062 561.304688 241.347656 565.523438 277.828125 C 569.714844 314.359375 559.929688 322.71875 543.054688 322.71875 C 526.222656 322.71875 557.148438 342.378906 565.523438 367.664062 C 573.945312 392.914062 575.398438 408.371094 611.875 398.554688 C 648.359375 388.722656 637.117188 388.722656 641.347656 408.371094 C 645.535156 428.023438 661 397.140625 663.78125 416.789062 C 666.597656 436.4375 628.707031 440.667969 649.722656 453.269531 C 670.785156 465.878906 655.40625 495.390625 645.535156 502.398438 C 635.707031 509.441406 642.722656 534.648438 621.699219 545.929688 C 600.597656 557.164062 631.527344 576.765625 618.886719 589.453125 C 606.277344 602.097656 572.539062 617.519531 585.179688 648.410156 C 597.859375 679.25 597.859375 661.007812 624.519531 638.535156 C 651.132812 616.113281 673.648438 578.21875 686.289062 579.628906 C 690.808594 580.128906 692.964844 583.648438 695.652344 586.640625 C 630.289062 687.503906 516.8125 754.371094 388.007812 754.371094 Z M 388.007812 0.605469 C 174.355469 0.605469 0.570312 174.386719 0.570312 388.019531 C 0.570312 601.601562 174.355469 775.425781 388.007812 775.425781 C 601.597656 775.425781 775.378906 601.601562 775.378906 388.019531 C 775.378906 174.386719 601.597656 0.605469 388.007812 0.605469 " fill-opacity="1" fill-rule="nonzero"/></g></g></g></g></svg>