<svg xmlns="http://www.w3.org/2000/svg" xmlns:xlink="http://www.w3.org/1999/xlink" width="1920" zoomAndPan="magnify" viewBox="0 0 1440 809.999993" height="1080" preserveAspectRatio="xMidYMid meet" version="1.0"><path fill="#1c3f60" d="M 656.539062 669.375 C 656.539062 669.375 664.375 697.699219 677.027344 699.515625 C 689.679688 701.328125 730.078125 693.476562 731.878906 684.4375 C 733.679688 675.398438 727.0625 657.316406 727.0625 657.316406 Z M 656.539062 669.375 " fill-opacity="1" fill-rule="nonzero"/><path fill="#3c89c9" d="M 606.519531 635.621094 C 606.519531 635.621094 611.335938 672.988281 648.703125 679.023438 C 686.066406 685.0625 741.574219 679.316406 750.570312 653.863281 C 759.566406 628.410156 743.3125 595.820312 743.3125 595.820312 Z M 606.519531 635.621094 " fill-opacity="1" fill-rule="nonzero"/><path fill="#1c3f60" d="M 558.894531 586.199219 C 558.894531 586.199219 567.339844 644.054688 613.746094 651.292969 C 660.152344 658.535156 723.449219 651.292969 749.960938 618.746094 C 776.472656 586.199219 743.328125 518.097656 743.328125 518.097656 Z M 558.894531 586.199219 " fill-opacity="1" fill-rule="nonzero"/><path fill="#d2edff" d="M 746.15625 546.453125 C 743.183594 549.109375 740.105469 551.691406 736.988281 554.128906 C 724.8125 563.824219 711.757812 572.125 697.816406 579.039062 C 683.875 585.949219 669.359375 591.316406 654.273438 595.136719 C 647.613281 596.835938 640.953125 598.183594 634.308594 599.242188 C 630.722656 599.78125 627.050781 600.273438 623.539062 600.621094 C 512.589844 612.492188 406.007812 538.09375 376.824219 422.847656 C 345 297.023438 417.511719 170.109375 538.824219 139.375 C 660.136719 108.640625 784.351562 185.765625 816.273438 311.605469 C 838.855469 400.949219 808.859375 490.816406 746.15625 546.453125 Z M 746.15625 546.453125 " fill-opacity="1" fill-rule="nonzero"/><path fill="#1c3f60" d="M 705.816406 517.488281 C 675.941406 483.808594 659.832031 434.238281 655.898438 401.9375 C 669.742188 395.496094 682.65625 386.613281 687.984375 373.785156 C 694.746094 357.359375 690.421875 348.871094 687.273438 345.285156 C 683.339844 340.859375 677.113281 339.265625 670.730469 341.035156 C 661.136719 343.691406 649.414062 354.28125 645.308594 376.0625 C 644.265625 382.441406 644.019531 388.851562 644.566406 395.292969 C 636.703125 398.46875 628.808594 400.949219 622.394531 402.96875 L 620.230469 403.648438 C 617.257812 404.59375 613.863281 405.667969 610.175781 406.753906 C 608.390625 404.234375 606.386719 401.898438 604.167969 399.746094 C 587.453125 383.785156 567.542969 367.269531 546.660156 366.5 C 536.707031 366.136719 527.492188 371.886719 522.574219 381.476562 C 517.480469 391.503906 518.292969 403.242188 524.707031 411.472656 C 541.480469 432.992188 578.527344 426.664062 605.574219 419.191406 C 629.054688 461.605469 625.890625 561.253906 623.496094 600.578125 C 627.066406 600.230469 630.679688 599.738281 634.265625 599.199219 C 636.628906 558.480469 639.355469 462.492188 615.847656 416.128906 C 618.578125 415.289062 621.117188 414.476562 623.453125 413.71875 L 625.804688 412.980469 C 631.609375 411.179688 638.542969 408.976562 645.699219 406.21875 C 650.546875 441.492188 668.175781 491.019531 697.9375 524.484375 C 709.910156 537.976562 723.070312 547.933594 737.03125 554.085938 C 740.152344 551.648438 743.226562 549.0625 746.203125 546.410156 C 731.820312 541.316406 718.355469 531.679688 705.816406 517.488281 Z M 533.136719 404.910156 C 529.277344 399.964844 528.886719 392.664062 532.105469 386.324219 C 535.007812 380.519531 540.175781 377.125 545.804688 377.125 L 546.34375 377.125 C 566.035156 377.863281 586.886719 397.800781 596.898438 407.394531 C 597.683594 408.175781 598.496094 409.019531 599.234375 409.902344 C 575.304688 416.214844 545.414062 420.742188 533.0625 404.910156 Z M 655.796875 378.039062 C 658.800781 362.074219 666.914062 353.152344 673.632812 351.265625 C 674.386719 351.054688 675.15625 350.945312 675.9375 350.945312 C 676.59375 350.917969 677.21875 351.03125 677.824219 351.285156 C 678.425781 351.539062 678.945312 351.910156 679.378906 352.398438 C 681.351562 354.617188 682.105469 360.390625 678.246094 369.808594 C 674.589844 378.617188 665.535156 385.378906 655.027344 390.707031 C 654.828125 386.460938 655.0625 382.238281 655.726562 378.039062 Z M 655.796875 378.039062 " fill-opacity="1" fill-rule="nonzero"/><path fill="#d2edff" d="M 1010.5625 275.445312 L 988.957031 280.042969 C 985.925781 273.121094 981.765625 266.957031 976.476562 261.558594 L 988.957031 243.578125 C 989.035156 243.472656 989.097656 243.359375 989.144531 243.238281 C 989.191406 243.117188 989.226562 242.992188 989.242188 242.863281 C 989.257812 242.734375 989.257812 242.601562 989.242188 242.472656 C 989.222656 242.34375 989.191406 242.21875 989.140625 242.097656 C 989.09375 241.976562 989.03125 241.863281 988.953125 241.757812 C 988.875 241.652344 988.785156 241.558594 988.683594 241.476562 C 988.582031 241.394531 988.472656 241.324219 988.355469 241.269531 C 988.234375 241.21875 988.113281 241.179688 987.984375 241.15625 C 983.894531 240.246094 980.121094 238.605469 976.664062 236.234375 C 973.089844 234.132812 970.050781 231.421875 967.550781 228.109375 C 967.472656 228.003906 967.378906 227.910156 967.277344 227.828125 C 967.171875 227.742188 967.0625 227.671875 966.941406 227.617188 C 966.820312 227.558594 966.695312 227.515625 966.566406 227.488281 C 966.4375 227.464844 966.304688 227.453125 966.171875 227.457031 C 966.039062 227.460938 965.910156 227.480469 965.78125 227.515625 C 965.65625 227.550781 965.53125 227.601562 965.417969 227.664062 C 965.300781 227.730469 965.195312 227.808594 965.097656 227.898438 C 965 227.988281 964.914062 228.085938 964.839844 228.195312 L 952.433594 246.105469 C 945.109375 243.449219 937.554688 242.113281 929.765625 242.097656 L 925.847656 221.390625 C 925.820312 221.261719 925.777344 221.140625 925.71875 221.023438 C 925.660156 220.90625 925.589844 220.796875 925.503906 220.699219 C 925.417969 220.597656 925.324219 220.511719 925.214844 220.433594 C 925.109375 220.359375 924.996094 220.296875 924.875 220.246094 C 924.75 220.199219 924.625 220.167969 924.496094 220.148438 C 924.367188 220.132812 924.234375 220.132812 924.105469 220.148438 C 923.976562 220.160156 923.847656 220.191406 923.726562 220.238281 C 923.605469 220.285156 923.488281 220.34375 923.378906 220.417969 C 919.695312 222.621094 915.738281 224.101562 911.511719 224.859375 C 907.367188 225.890625 903.179688 226.140625 898.945312 225.613281 C 898.8125 225.59375 898.679688 225.585938 898.546875 225.597656 C 898.414062 225.605469 898.285156 225.632812 898.160156 225.671875 C 898.03125 225.714844 897.914062 225.769531 897.800781 225.839844 C 897.6875 225.910156 897.582031 225.992188 897.488281 226.085938 C 897.394531 226.179688 897.3125 226.285156 897.246094 226.398438 C 897.175781 226.511719 897.121094 226.632812 897.082031 226.757812 C 897.042969 226.886719 897.015625 227.015625 897.007812 227.148438 C 897 227.28125 897.007812 227.414062 897.027344 227.542969 L 900.933594 248.179688 C 893.679688 251.398438 887.160156 255.722656 881.371094 261.152344 L 863.550781 249.789062 C 863.4375 249.71875 863.320312 249.664062 863.191406 249.621094 C 863.066406 249.578125 862.9375 249.550781 862.804688 249.542969 C 862.671875 249.53125 862.539062 249.535156 862.410156 249.554688 C 862.277344 249.574219 862.148438 249.609375 862.027344 249.660156 C 861.902344 249.710938 861.789062 249.773438 861.679688 249.851562 C 861.570312 249.929688 861.472656 250.019531 861.386719 250.121094 C 861.300781 250.21875 861.226562 250.328125 861.164062 250.449219 C 861.105469 250.566406 861.058594 250.691406 861.027344 250.820312 C 859.910156 254.902344 858.085938 258.644531 855.554688 262.035156 C 853.226562 265.640625 850.324219 268.703125 846.851562 271.222656 C 846.738281 271.292969 846.640625 271.375 846.550781 271.472656 C 846.460938 271.570312 846.382812 271.675781 846.320312 271.789062 C 846.257812 271.90625 846.207031 272.027344 846.175781 272.152344 C 846.144531 272.28125 846.125 272.410156 846.125 272.542969 C 846.125 272.675781 846.144531 272.804688 846.175781 272.929688 C 846.207031 273.058594 846.257812 273.179688 846.320312 273.296875 C 846.382812 273.410156 846.460938 273.515625 846.550781 273.613281 C 846.640625 273.707031 846.738281 273.792969 846.851562 273.863281 L 864.65625 285.226562 C 861.703125 292.382812 860.085938 299.832031 859.808594 307.574219 L 838.476562 312.113281 C 838.347656 312.136719 838.222656 312.175781 838.101562 312.230469 C 837.980469 312.285156 837.867188 312.351562 837.761719 312.433594 C 837.65625 312.515625 837.5625 312.605469 837.480469 312.710938 C 837.398438 312.816406 837.332031 312.925781 837.277344 313.046875 C 837.222656 313.167969 837.183594 313.292969 837.15625 313.425781 C 837.132812 313.554688 837.125 313.683594 837.132812 313.816406 C 837.136719 313.949219 837.160156 314.078125 837.199219 314.207031 C 837.238281 314.332031 837.292969 314.453125 837.359375 314.566406 C 839.507812 318.09375 840.890625 321.902344 841.511719 325.988281 C 842.425781 330.042969 842.535156 334.121094 841.84375 338.21875 C 841.820312 338.347656 841.8125 338.476562 841.820312 338.605469 C 841.828125 338.738281 841.851562 338.863281 841.890625 338.988281 C 841.929688 339.113281 841.984375 339.230469 842.054688 339.339844 C 842.125 339.449219 842.207031 339.550781 842.300781 339.640625 C 842.394531 339.730469 842.5 339.804688 842.613281 339.871094 C 842.726562 339.933594 842.847656 339.980469 842.972656 340.015625 C 843.101562 340.046875 843.230469 340.0625 843.359375 340.066406 C 843.488281 340.066406 843.617188 340.050781 843.746094 340.019531 L 865.132812 335.460938 C 868.207031 342.40625 872.417969 348.578125 877.757812 353.976562 L 865.378906 371.886719 C 865.304688 371.992188 865.242188 372.105469 865.191406 372.226562 C 865.144531 372.347656 865.113281 372.472656 865.09375 372.601562 C 865.078125 372.730469 865.078125 372.859375 865.097656 372.992188 C 865.113281 373.121094 865.144531 373.246094 865.195312 373.367188 C 865.242188 373.488281 865.304688 373.601562 865.382812 373.707031 C 865.460938 373.8125 865.550781 373.90625 865.652344 373.988281 C 865.753906 374.070312 865.863281 374.136719 865.980469 374.191406 C 866.101562 374.246094 866.222656 374.285156 866.351562 374.308594 C 870.441406 375.222656 874.214844 376.863281 877.671875 379.226562 C 881.242188 381.335938 884.285156 384.039062 886.796875 387.339844 C 886.878906 387.445312 886.96875 387.539062 887.070312 387.625 C 887.171875 387.707031 887.285156 387.777344 887.402344 387.835938 C 887.519531 387.894531 887.644531 387.9375 887.773438 387.964844 C 887.902344 387.992188 888.035156 388.003906 888.167969 388 C 888.300781 387.996094 888.429688 387.976562 888.554688 387.945312 C 888.683594 387.910156 888.804688 387.859375 888.921875 387.796875 C 889.039062 387.730469 889.144531 387.65625 889.242188 387.566406 C 889.339844 387.476562 889.425781 387.375 889.496094 387.265625 L 901.917969 369.300781 C 909.226562 371.898438 916.757812 373.191406 924.511719 373.175781 L 928.460938 394.070312 C 928.488281 394.199219 928.535156 394.324219 928.59375 394.441406 C 928.652344 394.554688 928.726562 394.664062 928.808594 394.765625 C 928.894531 394.863281 928.992188 394.953125 929.097656 395.027344 C 929.207031 395.105469 929.320312 395.167969 929.441406 395.214844 C 929.5625 395.261719 929.691406 395.296875 929.820312 395.3125 C 929.949219 395.332031 930.082031 395.335938 930.210938 395.320312 C 930.339844 395.308594 930.46875 395.277344 930.59375 395.234375 C 930.714844 395.191406 930.832031 395.132812 930.941406 395.058594 C 934.617188 392.84375 938.570312 391.359375 942.796875 390.605469 C 946.9375 389.574219 951.128906 389.320312 955.363281 389.847656 C 955.496094 389.871094 955.625 389.875 955.757812 389.867188 C 955.890625 389.855469 956.023438 389.832031 956.148438 389.789062 C 956.277344 389.75 956.394531 389.691406 956.507812 389.625 C 956.625 389.554688 956.726562 389.472656 956.820312 389.378906 C 956.914062 389.285156 956.996094 389.179688 957.066406 389.066406 C 957.136719 388.953125 957.191406 388.832031 957.234375 388.707031 C 957.273438 388.578125 957.300781 388.449219 957.308594 388.316406 C 957.320312 388.183594 957.3125 388.050781 957.292969 387.917969 L 953.332031 366.980469 C 960.484375 363.769531 966.921875 359.484375 972.644531 354.125 L 990.753906 365.730469 C 990.867188 365.800781 990.988281 365.859375 991.117188 365.898438 C 991.242188 365.941406 991.371094 365.96875 991.503906 365.980469 C 991.636719 365.992188 991.769531 365.988281 991.902344 365.964844 C 992.035156 365.945312 992.164062 365.910156 992.285156 365.863281 C 992.410156 365.8125 992.527344 365.746094 992.636719 365.667969 C 992.742188 365.59375 992.839844 365.503906 992.929688 365.402344 C 993.015625 365.300781 993.089844 365.191406 993.152344 365.074219 C 993.214844 364.957031 993.261719 364.832031 993.292969 364.703125 C 994.40625 360.617188 996.226562 356.878906 998.75 353.484375 C 1001.085938 349.886719 1003.988281 346.824219 1007.457031 344.300781 C 1007.566406 344.230469 1007.667969 344.144531 1007.757812 344.050781 C 1007.847656 343.953125 1007.925781 343.847656 1007.988281 343.730469 C 1008.050781 343.617188 1008.097656 343.496094 1008.132812 343.367188 C 1008.164062 343.238281 1008.179688 343.109375 1008.179688 342.980469 C 1008.179688 342.847656 1008.164062 342.71875 1008.132812 342.589844 C 1008.097656 342.464844 1008.050781 342.339844 1007.988281 342.226562 C 1007.925781 342.109375 1007.847656 342.003906 1007.757812 341.910156 C 1007.667969 341.8125 1007.566406 341.730469 1007.457031 341.660156 L 989.347656 330.050781 C 992.257812 322.972656 993.875 315.609375 994.195312 307.964844 L 1015.832031 303.347656 C 1015.960938 303.324219 1016.085938 303.285156 1016.203125 303.230469 C 1016.324219 303.175781 1016.4375 303.109375 1016.539062 303.027344 C 1016.644531 302.945312 1016.738281 302.851562 1016.816406 302.746094 C 1016.898438 302.644531 1016.96875 302.53125 1017.019531 302.410156 C 1017.074219 302.289062 1017.113281 302.164062 1017.136719 302.035156 C 1017.164062 301.90625 1017.171875 301.773438 1017.164062 301.644531 C 1017.15625 301.511719 1017.132812 301.382812 1017.09375 301.257812 C 1017.054688 301.128906 1017 301.011719 1016.933594 300.898438 C 1014.785156 297.375 1013.402344 293.570312 1012.78125 289.492188 C 1011.871094 285.433594 1011.765625 281.355469 1012.464844 277.257812 C 1012.488281 277.128906 1012.496094 277 1012.488281 276.871094 C 1012.480469 276.742188 1012.457031 276.613281 1012.414062 276.488281 C 1012.375 276.363281 1012.320312 276.246094 1012.25 276.136719 C 1012.179688 276.027344 1012.101562 275.925781 1012.003906 275.835938 C 1011.910156 275.746094 1011.808594 275.667969 1011.691406 275.605469 C 1011.578125 275.539062 1011.460938 275.492188 1011.332031 275.457031 C 1011.207031 275.421875 1011.078125 275.40625 1010.949219 275.402344 C 1010.820312 275.402344 1010.691406 275.414062 1010.5625 275.445312 Z M 944.871094 282.164062 C 959.003906 291.1875 962.5625 309.953125 952.792969 324.070312 C 943.027344 338.191406 923.65625 342.3125 909.507812 333.285156 C 895.359375 324.261719 891.820312 305.511719 901.585938 291.390625 C 911.351562 277.273438 930.722656 273.136719 944.871094 282.164062 Z M 944.871094 282.164062 " fill-opacity="1" fill-rule="nonzero"/><path fill="#1c3f60" d="M 1093.074219 541.835938 L 1061.019531 533.132812 C 1061.789062 521.769531 1060.503906 510.644531 1057.15625 499.753906 L 1086.179688 484.316406 C 1086.359375 484.230469 1086.523438 484.121094 1086.671875 483.992188 C 1086.824219 483.863281 1086.953125 483.71875 1087.066406 483.554688 C 1087.179688 483.394531 1087.273438 483.21875 1087.339844 483.035156 C 1087.410156 482.847656 1087.453125 482.65625 1087.472656 482.460938 C 1087.492188 482.261719 1087.488281 482.066406 1087.457031 481.871094 C 1087.425781 481.675781 1087.371094 481.484375 1087.292969 481.304688 C 1087.214844 481.121094 1087.113281 480.953125 1086.992188 480.796875 C 1086.867188 480.640625 1086.730469 480.503906 1086.570312 480.382812 C 1083.800781 478.222656 1079.488281 474.011719 1074.847656 466.003906 C 1070.203125 457.992188 1068.679688 452.230469 1068.230469 448.867188 C 1068.195312 448.667969 1068.136719 448.476562 1068.058594 448.292969 C 1067.980469 448.109375 1067.878906 447.941406 1067.757812 447.78125 C 1067.636719 447.621094 1067.5 447.476562 1067.34375 447.351562 C 1067.191406 447.222656 1067.023438 447.117188 1066.84375 447.03125 C 1066.664062 446.945312 1066.472656 446.878906 1066.277344 446.839844 C 1066.082031 446.796875 1065.886719 446.777344 1065.683594 446.785156 C 1065.484375 446.789062 1065.289062 446.820312 1065.097656 446.871094 C 1064.902344 446.925781 1064.71875 447 1064.542969 447.09375 L 1035.652344 462.507812 C 1027.679688 453.914062 1018.488281 446.925781 1008.082031 441.539062 L 1017.035156 411.238281 C 1017.089844 411.046875 1017.117188 410.851562 1017.125 410.652344 C 1017.132812 410.457031 1017.113281 410.257812 1017.070312 410.066406 C 1017.027344 409.871094 1016.960938 409.683594 1016.871094 409.507812 C 1016.785156 409.328125 1016.675781 409.164062 1016.546875 409.015625 C 1016.417969 408.863281 1016.269531 408.730469 1016.109375 408.617188 C 1015.945312 408.5 1015.773438 408.40625 1015.589844 408.335938 C 1015.402344 408.265625 1015.210938 408.214844 1015.015625 408.191406 C 1014.816406 408.167969 1014.621094 408.167969 1014.421875 408.191406 C 1010.839844 408.582031 1004.6875 408.480469 995.472656 405.972656 C 986.257812 403.460938 980.960938 400.414062 978.160156 398.324219 C 978 398.203125 977.828125 398.105469 977.640625 398.027344 C 977.457031 397.949219 977.265625 397.894531 977.070312 397.863281 C 976.871094 397.832031 976.675781 397.824219 976.476562 397.835938 C 976.273438 397.851562 976.082031 397.890625 975.890625 397.953125 C 975.699219 398.015625 975.519531 398.097656 975.347656 398.203125 C 975.179688 398.308594 975.023438 398.429688 974.882812 398.574219 C 974.742188 398.714844 974.621094 398.871094 974.515625 399.042969 C 974.414062 399.214844 974.332031 399.394531 974.269531 399.585938 L 965.230469 429.871094 C 953.316406 429.175781 941.621094 430.460938 930.144531 433.730469 L 914.179688 406.246094 C 914.078125 406.074219 913.953125 405.917969 913.8125 405.777344 C 913.671875 405.632812 913.515625 405.511719 913.34375 405.402344 C 913.171875 405.296875 912.992188 405.214844 912.800781 405.152344 C 912.609375 405.089844 912.414062 405.046875 912.214844 405.03125 C 912.015625 405.015625 911.816406 405.019531 911.617188 405.050781 C 911.417969 405.082031 911.226562 405.132812 911.042969 405.210938 C 910.855469 405.285156 910.679688 405.378906 910.515625 405.496094 C 910.355469 405.613281 910.207031 405.746094 910.074219 405.898438 C 907.839844 408.554688 903.371094 412.660156 895.054688 417.117188 C 886.742188 421.570312 880.675781 422.992188 877.132812 423.429688 C 876.9375 423.449219 876.746094 423.492188 876.5625 423.5625 C 876.375 423.628906 876.203125 423.71875 876.039062 423.832031 C 875.875 423.941406 875.726562 424.070312 875.597656 424.21875 C 875.464844 424.367188 875.355469 424.527344 875.261719 424.703125 C 875.171875 424.878906 875.101562 425.0625 875.058594 425.253906 C 875.011719 425.445312 874.988281 425.640625 874.992188 425.839844 C 874.996094 426.039062 875.019531 426.230469 875.070312 426.421875 C 875.121094 426.613281 875.195312 426.796875 875.292969 426.96875 L 891.253906 454.4375 C 882.402344 461.964844 875.113281 470.78125 869.386719 480.890625 L 837.722656 472.285156 C 837.53125 472.230469 837.339844 472.195312 837.140625 472.1875 C 836.945312 472.175781 836.75 472.191406 836.554688 472.230469 C 836.359375 472.265625 836.171875 472.328125 835.992188 472.410156 C 835.8125 472.492188 835.648438 472.59375 835.492188 472.71875 C 835.335938 472.84375 835.199219 472.980469 835.078125 473.136719 C 834.957031 473.296875 834.859375 473.464844 834.777344 473.644531 C 834.699219 473.824219 834.640625 474.015625 834.605469 474.207031 C 834.570312 474.402344 834.5625 474.597656 834.574219 474.796875 C 834.921875 478.207031 834.863281 484.113281 832.238281 492.9375 C 829.609375 501.757812 826.433594 506.808594 824.269531 509.507812 C 824.148438 509.660156 824.046875 509.824219 823.964844 510.003906 C 823.882812 510.183594 823.828125 510.371094 823.792969 510.5625 C 823.757812 510.753906 823.75 510.949219 823.765625 511.144531 C 823.78125 511.339844 823.820312 511.53125 823.882812 511.71875 C 823.949219 511.902344 824.035156 512.078125 824.140625 512.242188 C 824.25 512.40625 824.375 512.550781 824.523438 512.683594 C 824.667969 512.816406 824.828125 512.925781 825 513.019531 C 825.175781 513.109375 825.355469 513.175781 825.546875 513.222656 L 857.3125 521.929688 C 856.628906 533.335938 858 544.488281 861.417969 555.390625 L 832.511719 570.785156 C 832.339844 570.875 832.175781 570.984375 832.03125 571.113281 C 831.882812 571.242188 831.753906 571.386719 831.644531 571.550781 C 831.535156 571.710938 831.445312 571.882812 831.378906 572.066406 C 831.3125 572.25 831.269531 572.441406 831.25 572.636719 C 831.230469 572.828125 831.238281 573.023438 831.269531 573.21875 C 831.296875 573.410156 831.351562 573.597656 831.429688 573.777344 C 831.507812 573.957031 831.605469 574.125 831.726562 574.277344 C 831.84375 574.433594 831.980469 574.570312 832.136719 574.691406 C 834.921875 576.851562 839.246094 581.089844 843.890625 589.054688 C 848.53125 597.023438 850.042969 602.84375 850.476562 606.207031 C 850.511719 606.40625 850.566406 606.59375 850.644531 606.777344 C 850.722656 606.960938 850.824219 607.132812 850.941406 607.292969 C 851.0625 607.453125 851.199219 607.597656 851.355469 607.722656 C 851.507812 607.851562 851.675781 607.957031 851.855469 608.042969 C 852.035156 608.128906 852.222656 608.195312 852.417969 608.238281 C 852.613281 608.277344 852.808594 608.296875 853.011719 608.289062 C 853.210938 608.285156 853.40625 608.253906 853.597656 608.203125 C 853.789062 608.148438 853.972656 608.074219 854.148438 607.980469 L 883.171875 592.496094 C 891.160156 601.015625 900.351562 607.949219 910.742188 613.289062 L 901.613281 643.953125 C 901.566406 644.144531 901.539062 644.335938 901.539062 644.535156 C 901.539062 644.734375 901.558594 644.929688 901.605469 645.121094 C 901.652344 645.3125 901.722656 645.496094 901.8125 645.671875 C 901.90625 645.847656 902.015625 646.007812 902.148438 646.15625 C 902.277344 646.304688 902.425781 646.433594 902.585938 646.546875 C 902.75 646.660156 902.925781 646.75 903.109375 646.820312 C 903.292969 646.890625 903.484375 646.9375 903.679688 646.957031 C 903.878906 646.980469 904.074219 646.980469 904.269531 646.957031 C 907.8125 646.605469 913.976562 646.679688 923.132812 649.191406 C 932.289062 651.699219 937.644531 654.746094 940.445312 656.835938 C 940.609375 656.953125 940.78125 657.050781 940.964844 657.128906 C 941.152344 657.207031 941.34375 657.261719 941.539062 657.292969 C 941.738281 657.324219 941.9375 657.332031 942.136719 657.320312 C 942.335938 657.304688 942.53125 657.269531 942.722656 657.207031 C 942.914062 657.148438 943.09375 657.066406 943.265625 656.964844 C 943.4375 656.863281 943.597656 656.742188 943.738281 656.601562 C 943.882812 656.464844 944.011719 656.308594 944.117188 656.140625 C 944.226562 655.972656 944.3125 655.792969 944.378906 655.605469 L 953.519531 624.871094 C 965.300781 625.492188 976.867188 624.191406 988.214844 620.964844 L 1004.46875 648.898438 C 1004.570312 649.074219 1004.691406 649.230469 1004.832031 649.375 C 1004.972656 649.519531 1005.128906 649.644531 1005.296875 649.753906 C 1005.464844 649.859375 1005.644531 649.945312 1005.835938 650.011719 C 1006.027344 650.078125 1006.222656 650.121094 1006.421875 650.140625 C 1006.621094 650.15625 1006.820312 650.152344 1007.019531 650.125 C 1007.21875 650.097656 1007.414062 650.046875 1007.601562 649.972656 C 1007.785156 649.898438 1007.960938 649.804688 1008.128906 649.691406 C 1008.292969 649.574219 1008.441406 649.441406 1008.574219 649.292969 C 1010.808594 646.605469 1015.234375 642.5 1023.59375 638.03125 C 1031.953125 633.5625 1037.929688 632.226562 1041.515625 631.734375 C 1041.710938 631.714844 1041.902344 631.671875 1042.089844 631.605469 C 1042.277344 631.539062 1042.453125 631.449219 1042.617188 631.335938 C 1042.78125 631.226562 1042.925781 631.09375 1043.058594 630.945312 C 1043.1875 630.796875 1043.300781 630.632812 1043.390625 630.457031 C 1043.476562 630.28125 1043.542969 630.097656 1043.585938 629.902344 C 1043.632812 629.710938 1043.648438 629.515625 1043.640625 629.316406 C 1043.636719 629.117188 1043.605469 628.921875 1043.550781 628.734375 C 1043.492188 628.542969 1043.414062 628.363281 1043.3125 628.191406 L 1027.0625 600.257812 C 1035.851562 592.832031 1043.109375 584.125 1048.828125 574.140625 L 1080.941406 582.84375 C 1081.132812 582.902344 1081.328125 582.933594 1081.53125 582.945312 C 1081.730469 582.953125 1081.929688 582.9375 1082.125 582.898438 C 1082.324219 582.859375 1082.511719 582.796875 1082.695312 582.714844 C 1082.875 582.628906 1083.046875 582.523438 1083.203125 582.398438 C 1083.359375 582.273438 1083.496094 582.132812 1083.621094 581.972656 C 1083.742188 581.8125 1083.84375 581.644531 1083.925781 581.460938 C 1084.007812 581.277344 1084.066406 581.085938 1084.101562 580.886719 C 1084.136719 580.691406 1084.144531 580.492188 1084.132812 580.292969 C 1083.742188 576.894531 1083.8125 570.988281 1086.425781 562.195312 C 1089.039062 553.402344 1092.230469 548.324219 1094.4375 545.597656 C 1094.5625 545.441406 1094.667969 545.269531 1094.75 545.085938 C 1094.832031 544.902344 1094.890625 544.710938 1094.921875 544.511719 C 1094.957031 544.316406 1094.960938 544.117188 1094.945312 543.914062 C 1094.925781 543.714844 1094.882812 543.519531 1094.8125 543.332031 C 1094.746094 543.144531 1094.652344 542.964844 1094.539062 542.800781 C 1094.425781 542.636719 1094.292969 542.488281 1094.140625 542.355469 C 1093.988281 542.226562 1093.820312 542.117188 1093.640625 542.027344 C 1093.457031 541.941406 1093.269531 541.875 1093.074219 541.835938 Z M 982.308594 567.042969 C 959.5 579.1875 930.753906 571.324219 918.039062 549.515625 C 905.328125 527.703125 913.542969 500.175781 936.339844 488.046875 C 959.136719 475.914062 987.898438 483.792969 1000.566406 505.558594 C 1013.234375 527.328125 1005.105469 554.898438 982.308594 567.058594 Z M 982.308594 567.042969 " fill-opacity="1" fill-rule="nonzero"/></svg>